<?xml version="1.0" standalone="no"?>
<!DOCTYPE svg PUBLIC "-//W3C//DTD SVG 20010904//EN"
 "http://www.w3.org/TR/2001/REC-SVG-20010904/DTD/svg10.dtd">
<svg version="1.0" xmlns="http://www.w3.org/2000/svg"
 width="666.000000pt" height="374.000000pt" viewBox="0 0 666.000000 374.000000"
 preserveAspectRatio="xMidYMid meet">

<g transform="translate(0.000000,374.000000) scale(0.100000,-0.100000)"
fill="#000000" stroke="none">
<path d="M4631 3070 c-32 -4 -49 -12 -63 -30 -18 -25 -19 -66 -19 -1244 1
-671 2 -1220 3 -1222 2 -1 41 -7 88 -12 l85 -9 -91 -2 c-72 -1 -93 -4 -98 -16
-6 -18 19 -21 30 -4 4 8 29 10 73 6 86 -7 295 9 328 25 15 7 35 28 45 47 18
32 19 76 16 1215 -2 902 -6 1186 -15 1202 -7 12 -25 26 -40 32 -30 12 -269 20
-342 12z"/>
<path d="M1842 3063 c-65 -8 -62 56 -62 -1270 0 -659 4 -1203 8 -1209 4 -5 21
-16 39 -23 41 -17 357 -19 395 -3 l27 11 3 913 c2 502 2 1060 0 1240 l-3 327
-37 11 c-35 9 -298 12 -370 3z"/>
<path d="M1270 1816 l0 -1054 31 -11 c43 -15 298 -10 327 7 l22 13 -2 1047 -3
1047 -187 3 -188 2 0 -1054z"/>
<path d="M5190 2863 c-8 -3 -18 -11 -22 -17 -4 -6 -8 -480 -8 -1054 l0 -1042
188 2 187 3 3 1035 c1 569 0 1045 -3 1058 -5 22 -7 22 -168 21 -89 0 -169 -3
-177 -6z"/>
<path d="M809 2674 c-12 -14 -14 -125 -16 -718 -1 -386 1 -769 4 -853 l6 -152
31 -11 c34 -11 260 0 273 14 5 4 9 387 11 851 l2 844 -27 18 c-40 27 -263 32
-284 7z"/>
<path d="M5719 2673 c-9 -2 -18 -16 -20 -31 -4 -26 -4 -1190 -1 -1529 l2 -161
51 -12 c54 -13 178 -8 234 10 l30 10 -3 847 c-1 467 -4 854 -7 861 -3 9 -39
12 -137 11 -73 -1 -140 -3 -149 -6z"/>
<path d="M2377 1988 c2 -73 7 -144 10 -158 4 -14 7 -29 7 -35 1 -12 107 -51
163 -60 29 -5 34 -4 23 4 -19 14 58 4 112 -15 20 -7 58 -16 85 -20 43 -6 123
-38 123 -49 0 -8 -43 5 -66 20 -13 8 -38 15 -56 15 -25 0 -29 -3 -18 -10 8 -5
23 -10 33 -10 28 0 146 -53 152 -69 4 -10 -1 -12 -16 -8 l-21 6 22 -24 c12
-12 22 -29 24 -36 3 -22 22 -53 61 -99 39 -47 81 -124 62 -114 -7 3 -3 -3 9
-13 29 -26 64 -78 64 -97 0 -9 9 -24 20 -33 11 -10 20 -23 20 -29 0 -6 7 -17
15 -24 8 -7 13 -16 10 -20 -3 -4 5 -19 16 -34 11 -14 17 -26 13 -26 -4 0 1 -7
12 -16 10 -8 13 -12 5 -8 -9 4 -12 2 -9 -7 3 -8 10 -13 16 -12 7 2 9 -4 5 -14
-4 -11 -3 -14 5 -9 7 4 21 -12 37 -46 34 -70 47 -119 32 -116 -7 2 -14 -2 -16
-7 -2 -6 13 -13 33 -16 33 -5 40 -3 61 25 27 35 152 255 209 366 22 41 52 95
68 119 17 25 34 54 39 65 5 12 22 44 38 71 16 28 36 65 45 83 17 37 26 42 19
10 -4 -22 -4 -22 11 -5 8 11 12 25 9 33 -6 17 24 67 36 59 5 -2 14 2 21 10 11
13 10 14 -6 9 -14 -5 -16 -4 -8 5 11 13 27 17 124 36 36 7 90 20 120 28 30 9
70 19 89 22 19 3 41 10 50 16 12 7 7 8 -19 4 -32 -5 -33 -4 -10 6 47 20 140
38 140 27 0 -6 6 -5 15 2 12 10 15 42 15 172 l0 160 -62 -7 c-35 -4 -88 -16
-118 -26 -30 -10 -73 -21 -95 -25 -22 -3 -92 -19 -155 -34 -63 -16 -131 -31
-150 -35 -19 -3 -47 -11 -61 -16 -31 -12 -105 -122 -169 -249 -23 -47 -59
-114 -80 -150 -21 -36 -58 -103 -82 -148 -25 -46 -49 -83 -54 -82 -5 1 -23 27
-40 58 -57 105 -76 137 -84 142 -4 3 -10 16 -12 30 -2 14 -9 24 -15 23 -13 -3
-27 32 -19 46 4 5 1 22 -5 37 -7 21 -12 25 -18 15 -6 -10 -11 -5 -16 18 -4 17
-10 29 -15 26 -5 -3 -12 0 -16 6 -4 8 -3 9 4 5 17 -10 15 -2 -9 38 -12 20 -25
33 -30 30 -5 -3 -6 1 -3 9 8 23 -45 116 -75 131 -24 12 -121 37 -266 67 -33 7
-66 17 -73 22 -7 5 -15 7 -18 4 -3 -3 -27 1 -52 9 -43 13 -242 54 -261 54 -5
0 -7 -60 -4 -132z m168 -228 c8 -13 -5 -13 -25 0 -13 8 -13 10 2 10 9 0 20 -4
23 -10z m449 -246 c5 -14 4 -15 -9 -4 -17 14 -19 20 -6 20 5 0 12 -7 15 -16z"/>
<path d="M4328 1753 c7 -3 16 -2 19 1 4 3 -2 6 -13 5 -11 0 -14 -3 -6 -6z"/>
<path d="M2606 1721 c5 -4 27 -11 49 -14 l40 -5 -30 13 c-34 16 -74 20 -59 6z"/>
<path d="M2708 1693 c6 -2 18 -2 25 0 6 3 1 5 -13 5 -14 0 -19 -2 -12 -5z"/>
<path d="M3881 1602 c-17 -31 -13 -40 5 -14 9 13 14 26 11 29 -3 2 -10 -4 -16
-15z"/>
<path d="M3730 1315 c-6 -8 -10 -20 -8 -26 2 -6 12 0 21 15 18 27 8 37 -13 11z"/>
<path d="M3686 1233 c-6 -14 -5 -15 5 -6 7 7 10 15 7 18 -3 3 -9 -2 -12 -12z"/>
<path d="M3280 965 c0 -5 5 -17 10 -25 5 -8 10 -10 10 -5 0 6 -5 17 -10 25 -5
8 -10 11 -10 5z"/>
</g>
</svg>
